<svg width="80" height="17" viewBox="0 0 80 17" fill="none" xmlns="http://www.w3.org/2000/svg">
<g clip-path="url(#clip0_3250_10447)">
<path d="M0 8.89054V8.01936C0 2.68057 2.68801 0 8.07148 0C13.455 0 15.6441 2.44229 15.6888 6.78332V6.96203H10V6.58228C9.97766 5.10052 9.21817 4.31869 7.98957 4.31869C6.66418 4.31869 5.74832 5.23455 5.74832 7.34922V9.56813C5.74832 11.6754 6.67163 12.5987 7.98957 12.5987C9.23306 12.5987 10.0447 11.7945 10.0521 10.2457V9.76173H15.7632V9.94043C15.7409 14.4899 13.2986 16.9173 8.07148 16.9173C2.84438 16.9173 0 14.2293 0 8.89054Z" fill="#5A81FA"/>
<path d="M16.5303 10.9973V10.5059C16.5303 6.7382 18.6747 4.59375 23.2391 4.59375C27.8035 4.59375 29.9554 6.7382 29.9554 10.5059V10.9973C29.9554 14.765 27.7886 16.9095 23.2391 16.9095C18.6896 16.9095 16.5303 14.7576 16.5303 10.9973ZM24.8177 11.3026V10.2155C24.8177 8.7933 24.1773 8.15295 23.2466 8.15295C22.3158 8.15295 21.668 8.7933 21.668 10.2155V11.3026C21.668 12.7025 22.3084 13.3577 23.2466 13.3577C24.1848 13.3577 24.8177 12.7099 24.8177 11.3026Z" fill="#5A81FA"/>
<path d="M54.4605 8.25032H52.3086V5.0113H55.0189C54.5498 4.86238 54.0956 4.3635 54.0956 3.20936V3.10512C54.0956 1.3553 55.2498 0.201172 59.3674 0.201172C60.6481 0.201172 61.6087 0.3352 61.9661 0.394768V3.64868C61.7427 3.62634 61.2364 3.56677 60.6332 3.56677C59.5014 3.56677 59.1962 3.87206 59.1962 4.40817V4.47519C59.1962 4.84749 59.3451 4.98151 59.5312 5.0113H61.9661V8.25032H59.5089V16.4931H54.453V8.25032H54.4605Z" fill="#5A81FA"/>
<path d="M65.5322 0.417969H66.9022C67.8925 0.417969 68.6893 1.31894 68.6893 2.43584C68.6893 3.55274 67.8851 4.45371 66.9022 4.45371H65.5322C64.5418 4.45371 63.7451 3.55274 63.7451 2.43584C63.7451 1.31894 64.5493 0.417969 65.5322 0.417969Z" fill="#5A81FA"/>
<path d="M66.016 5.10742H67.7882L68.9497 16.5743H66.1724H66.2617H63.4844L64.646 5.10742H66.4181" fill="#5A81FA"/>
<path d="M70.3949 12.4058L71.9809 6.82131L70.1641 6.84365L70.6927 5.00448L72.5989 5.02682L73.4254 2.06331L78.4589 0.730469L77.2154 5.02682L79.9928 5.00448L79.4641 6.84365L76.7538 6.82131L75.0561 12.7483C74.7583 13.7833 75.1008 14.4014 75.972 14.4014C76.4336 14.4014 76.8655 14.2599 77.4612 13.9174L77.074 15.3842C76.2251 16.2331 74.7508 16.8288 73.3956 16.8288C70.8938 16.8288 69.6503 14.9449 70.3874 12.3909L70.3949 12.4058Z" fill="#5A81FA"/>
<path d="M31.0422 10.983L31.273 10.2459C31.8017 8.4514 32.0325 7.53554 32.6952 5.01134H37.0586C36.5299 6.59734 35.9119 8.18334 35.0407 10.5735H35.3385C36.9915 6.66436 39.0615 4.64648 41.4294 4.64648C42.7622 4.64648 43.5217 5.30918 43.5217 6.48565C43.5217 7.14835 43.3132 7.79615 42.1665 10.5735H42.4644C44.1397 6.64202 46.165 4.64648 48.5775 4.64648C50.2082 4.64648 51.1762 5.56234 51.1762 7.14835C51.1762 7.72169 51.0124 8.50352 50.7146 9.41938L50.1189 11.3479C49.1509 14.3338 48.9722 15.0262 48.6297 16.4931H43.4845C44.244 14.3561 44.6535 13.0009 45.1375 11.6904L45.9193 9.57575C46.1278 8.98007 46.2172 8.60777 46.2395 8.30992C46.2618 7.84827 46.0757 7.59511 45.7108 7.59511C44.862 7.59511 43.693 9.50129 42.6803 12.4201C42.3154 13.4328 41.8761 14.8773 41.4889 16.4857H36.3884C37.4011 13.5668 37.5574 12.9488 37.9968 11.7723L38.7786 9.59064C38.9871 9.0173 39.0764 8.65244 39.0988 8.30248C39.1211 7.81849 38.935 7.58766 38.5924 7.58766C37.7436 7.58766 36.5671 9.4715 35.5396 12.435C35.2194 13.3956 34.7801 14.9145 34.3929 16.4782H29.3594C30.0742 14.2965 30.4167 13.1275 31.0571 10.9682L31.0422 10.983Z" fill="#5A81FA"/>
</g>
<defs>
<clipPath id="clip0_3250_10447">
<rect width="80" height="16.9099" fill="white"/>
</clipPath>
</defs>
</svg>
